<svg width="330" height="104" viewBox="0 0 330 104" fill="none" xmlns="http://www.w3.org/2000/svg">
<rect width="330" height="104" fill="#E5E5E5"/>
<g id="Production / Figma &#226;&#134;&#146; Blender &#194;&#183; October 2026">
<path d="M-2748 -1530C-2748 -1531.1 -2747.1 -1532 -2746 -1532H2850C2851.1 -1532 2852 -1531.1 2852 -1530V15466C2852 15467.1 2851.1 15468 2850 15468H-2746C-2747.1 15468 -2748 15467.1 -2748 15466V-1530Z" fill="white"/>
<path d="M-2746 -1532V-1531H2850V-1532V-1533H-2746V-1532ZM2852 -1530H2851V15466H2852H2853V-1530H2852ZM2850 15468V15467H-2746V15468V15469H2850V15468ZM-2748 15466H-2747V-1530H-2748H-2749V15466H-2748ZM-2746 15468V15467C-2746.55 15467 -2747 15466.6 -2747 15466H-2748H-2749C-2749 15467.7 -2747.66 15469 -2746 15469V15468ZM2852 15466H2851C2851 15466.6 2850.55 15467 2850 15467V15468V15469C2851.66 15469 2853 15467.7 2853 15466H2852ZM2850 -1532V-1531C2850.55 -1531 2851 -1530.55 2851 -1530H2852H2853C2853 -1531.66 2851.66 -1533 2850 -1533V-1532ZM-2746 -1532V-1533C-2747.66 -1533 -2749 -1531.66 -2749 -1530H-2748H-2747C-2747 -1530.55 -2746.55 -1531 -2746 -1531V-1532Z" fill="black" fill-opacity="0.1"/>
<g id="Masters / export artwork &#226;&#128;&#148; no presentation lighting">
<rect width="1120" height="3278.91" transform="translate(-48 -1468)" fill="#262522"/>
<g id="Texture / FSAE / Data logging">
<rect id="Backing" opacity="0.9" x="16" y="16" width="298" height="72" rx="12" fill="#0B0C0D"/>
<path id="Data logging" d="M66.6877 64V39.86H74.4397C78.225 39.86 81.1377 40.914 83.1777 43.022C85.2177 45.1073 86.2377 48.088 86.2377 51.964C86.2377 55.8173 85.229 58.7867 83.2117 60.872C81.217 62.9573 78.361 64 74.6437 64H66.6877ZM70.3597 60.634H74.4397C77.1143 60.634 79.109 59.92 80.4237 58.492C81.761 57.0413 82.4297 54.8653 82.4297 51.964C82.4297 49.0173 81.761 46.83 80.4237 45.402C79.109 43.9513 77.1143 43.226 74.4397 43.226H70.3597V60.634ZM95.618 64.408C93.7366 64.408 92.2293 63.9773 91.096 63.116C89.9853 62.2547 89.43 61.042 89.43 59.478C89.43 57.914 89.8946 56.7013 90.824 55.84C91.776 54.956 93.238 54.3213 95.21 53.936L101.432 52.746C101.432 51.3407 101.103 50.298 100.446 49.618C99.7886 48.9153 98.814 48.564 97.522 48.564C96.366 48.564 95.4593 48.8247 94.802 49.346C94.1446 49.8447 93.6913 50.5927 93.442 51.59L89.736 51.352C90.076 49.5387 90.9146 48.1107 92.252 47.068C93.612 46.0253 95.3686 45.504 97.522 45.504C99.97 45.504 101.829 46.1613 103.098 47.476C104.39 48.768 105.036 50.5927 105.036 52.95V59.988C105.036 60.4187 105.104 60.7247 105.24 60.906C105.399 61.0647 105.648 61.144 105.988 61.144H106.634V64C106.521 64.0227 106.339 64.0453 106.09 64.068C105.841 64.0907 105.58 64.102 105.308 64.102C104.537 64.102 103.869 63.9773 103.302 63.728C102.758 63.4787 102.35 63.0707 102.078 62.504C101.806 61.9147 101.67 61.1327 101.67 60.158L102.044 60.328C101.863 61.1213 101.466 61.824 100.854 62.436C100.265 63.048 99.5053 63.5353 98.576 63.898C97.6693 64.238 96.6833 64.408 95.618 64.408ZM96.196 61.552C97.284 61.552 98.2133 61.348 98.984 60.94C99.7546 60.5093 100.355 59.92 100.786 59.172C101.217 58.424 101.432 57.574 101.432 56.622V55.466L96.128 56.486C95.04 56.69 94.2693 57.0187 93.816 57.472C93.3853 57.9027 93.17 58.458 93.17 59.138C93.17 59.9087 93.4306 60.5093 93.952 60.94C94.496 61.348 95.244 61.552 96.196 61.552ZM115.683 64C113.961 64 112.691 63.6033 111.875 62.81C111.059 62.0167 110.651 60.7813 110.651 59.104V41.662H114.255V58.832C114.255 59.6707 114.437 60.2487 114.799 60.566C115.162 60.8833 115.717 61.042 116.465 61.042H119.049V64H115.683ZM107.897 48.87V45.912H119.049V48.87H107.897ZM127.46 64.408C125.578 64.408 124.071 63.9773 122.938 63.116C121.827 62.2547 121.272 61.042 121.272 59.478C121.272 57.914 121.736 56.7013 122.666 55.84C123.618 54.956 125.08 54.3213 127.052 53.936L133.274 52.746C133.274 51.3407 132.945 50.298 132.288 49.618C131.63 48.9153 130.656 48.564 129.364 48.564C128.208 48.564 127.301 48.8247 126.644 49.346C125.986 49.8447 125.533 50.5927 125.284 51.59L121.578 51.352C121.918 49.5387 122.756 48.1107 124.094 47.068C125.454 46.0253 127.21 45.504 129.364 45.504C131.812 45.504 133.67 46.1613 134.94 47.476C136.232 48.768 136.878 50.5927 136.878 52.95V59.988C136.878 60.4187 136.946 60.7247 137.082 60.906C137.24 61.0647 137.49 61.144 137.83 61.144H138.476V64C138.362 64.0227 138.181 64.0453 137.932 64.068C137.682 64.0907 137.422 64.102 137.15 64.102C136.379 64.102 135.71 63.9773 135.144 63.728C134.6 63.4787 134.192 63.0707 133.92 62.504C133.648 61.9147 133.512 61.1327 133.512 60.158L133.886 60.328C133.704 61.1213 133.308 61.824 132.696 62.436C132.106 63.048 131.347 63.5353 130.418 63.898C129.511 64.238 128.525 64.408 127.46 64.408ZM128.038 61.552C129.126 61.552 130.055 61.348 130.826 60.94C131.596 60.5093 132.197 59.92 132.628 59.172C133.058 58.424 133.274 57.574 133.274 56.622V55.466L127.97 56.486C126.882 56.69 126.111 57.0187 125.658 57.472C125.227 57.9027 125.012 58.458 125.012 59.138C125.012 59.9087 125.272 60.5093 125.794 60.94C126.338 61.348 127.086 61.552 128.038 61.552ZM153.83 64C152.651 64 151.699 63.694 150.974 63.082C150.249 62.47 149.886 61.4953 149.886 60.158V39.86H153.49V59.818C153.49 60.226 153.592 60.532 153.796 60.736C154.023 60.94 154.34 61.042 154.748 61.042H156.176V64H153.83ZM166.695 64.408C164.973 64.408 163.465 64.0227 162.173 63.252C160.881 62.4813 159.884 61.382 159.181 59.954C158.479 58.526 158.127 56.86 158.127 54.956C158.127 53.0293 158.479 51.3633 159.181 49.958C159.884 48.5527 160.881 47.4647 162.173 46.694C163.465 45.9007 164.973 45.504 166.695 45.504C168.418 45.504 169.925 45.9007 171.217 46.694C172.509 47.4647 173.507 48.5527 174.209 49.958C174.912 51.3633 175.263 53.0293 175.263 54.956C175.263 56.86 174.912 58.526 174.209 59.954C173.507 61.382 172.509 62.4813 171.217 63.252C169.925 64.0227 168.418 64.408 166.695 64.408ZM166.695 61.28C168.237 61.28 169.427 60.7247 170.265 59.614C171.104 58.4807 171.523 56.928 171.523 54.956C171.523 52.984 171.104 51.4427 170.265 50.332C169.427 49.1987 168.237 48.632 166.695 48.632C165.177 48.632 163.987 49.1987 163.125 50.332C162.287 51.4427 161.867 52.984 161.867 54.956C161.867 56.928 162.287 58.4807 163.125 59.614C163.987 60.7247 165.177 61.28 166.695 61.28ZM186.181 69.508C184.753 69.508 183.495 69.2927 182.407 68.862C181.319 68.4313 180.424 67.8193 179.721 67.026C179.019 66.2553 178.543 65.3487 178.293 64.306L182.033 64.068C182.283 64.816 182.713 65.4053 183.325 65.836C183.96 66.2893 184.912 66.516 186.181 66.516C187.677 66.516 188.822 66.1987 189.615 65.564C190.431 64.9293 190.839 63.966 190.839 62.674V60.056C190.409 60.9853 189.717 61.722 188.765 62.266C187.813 62.81 186.748 63.082 185.569 63.082C184.051 63.082 182.702 62.708 181.523 61.96C180.345 61.212 179.427 60.1807 178.769 58.866C178.112 57.5513 177.783 56.0327 177.783 54.31C177.783 52.5647 178.101 51.0347 178.735 49.72C179.393 48.4053 180.299 47.374 181.455 46.626C182.634 45.878 183.96 45.504 185.433 45.504C186.725 45.504 187.859 45.7987 188.833 46.388C189.831 46.9773 190.545 47.7707 190.975 48.768V45.912H194.443V62.572C194.443 64.068 194.103 65.326 193.423 66.346C192.766 67.3887 191.814 68.1707 190.567 68.692C189.343 69.236 187.881 69.508 186.181 69.508ZM186.147 60.022C187.553 60.022 188.675 59.512 189.513 58.492C190.375 57.472 190.817 56.0667 190.839 54.276C190.862 53.0973 190.681 52.0887 190.295 51.25C189.91 50.3887 189.355 49.7313 188.629 49.278C187.927 48.802 187.099 48.564 186.147 48.564C184.674 48.564 183.529 49.0853 182.713 50.128C181.92 51.148 181.523 52.5307 181.523 54.276C181.523 56.044 181.931 57.4493 182.747 58.492C183.586 59.512 184.719 60.022 186.147 60.022ZM206.502 69.508C205.074 69.508 203.816 69.2927 202.728 68.862C201.64 68.4313 200.744 67.8193 200.042 67.026C199.339 66.2553 198.863 65.3487 198.614 64.306L202.354 64.068C202.603 64.816 203.034 65.4053 203.646 65.836C204.28 66.2893 205.232 66.516 206.502 66.516C207.998 66.516 209.142 66.1987 209.936 65.564C210.752 64.9293 211.16 63.966 211.16 62.674V60.056C210.729 60.9853 210.038 61.722 209.086 62.266C208.134 62.81 207.068 63.082 205.89 63.082C204.371 63.082 203.022 62.708 201.844 61.96C200.665 61.212 199.747 60.1807 199.09 58.866C198.432 57.5513 198.104 56.0327 198.104 54.31C198.104 52.5647 198.421 51.0347 199.056 49.72C199.713 48.4053 200.62 47.374 201.776 46.626C202.954 45.878 204.28 45.504 205.754 45.504C207.046 45.504 208.179 45.7987 209.154 46.388C210.151 46.9773 210.865 47.7707 211.296 48.768V45.912H214.764V62.572C214.764 64.068 214.424 65.326 213.744 66.346C213.086 67.3887 212.134 68.1707 210.888 68.692C209.664 69.236 208.202 69.508 206.502 69.508ZM206.468 60.022C207.873 60.022 208.995 59.512 209.834 58.492C210.695 57.472 211.137 56.0667 211.16 54.276C211.182 53.0973 211.001 52.0887 210.616 51.25C210.23 50.3887 209.675 49.7313 208.95 49.278C208.247 48.802 207.42 48.564 206.468 48.564C204.994 48.564 203.85 49.0853 203.034 50.128C202.24 51.148 201.844 52.5307 201.844 54.276C201.844 56.044 202.252 57.4493 203.068 58.492C203.906 59.512 205.04 60.022 206.468 60.022ZM219.446 64V45.912H223.05V64H219.446ZM219.378 43.294V39.69H223.118V43.294H219.378ZM228.445 64V45.912H231.743L231.879 50.74L231.437 50.502C231.641 49.3233 232.026 48.3713 232.593 47.646C233.159 46.9207 233.851 46.388 234.667 46.048C235.483 45.6853 236.367 45.504 237.319 45.504C238.679 45.504 239.801 45.81 240.685 46.422C241.591 47.0113 242.271 47.8273 242.725 48.87C243.201 49.89 243.439 51.0573 243.439 52.372V64H239.835V53.46C239.835 52.3947 239.721 51.4993 239.495 50.774C239.268 50.0487 238.894 49.4933 238.373 49.108C237.851 48.7227 237.171 48.53 236.333 48.53C235.063 48.53 234.032 48.9493 233.239 49.788C232.445 50.6267 232.049 51.8507 232.049 53.46V64H228.445ZM255.41 69.508C253.982 69.508 252.724 69.2927 251.636 68.862C250.548 68.4313 249.653 67.8193 248.95 67.026C248.247 66.2553 247.771 65.3487 247.522 64.306L251.262 64.068C251.511 64.816 251.942 65.4053 252.554 65.836C253.189 66.2893 254.141 66.516 255.41 66.516C256.906 66.516 258.051 66.1987 258.844 65.564C259.66 64.9293 260.068 63.966 260.068 62.674V60.056C259.637 60.9853 258.946 61.722 257.994 62.266C257.042 62.81 255.977 63.082 254.798 63.082C253.279 63.082 251.931 62.708 250.752 61.96C249.573 61.212 248.655 60.1807 247.998 58.866C247.341 57.5513 247.012 56.0327 247.012 54.31C247.012 52.5647 247.329 51.0347 247.964 49.72C248.621 48.4053 249.528 47.374 250.684 46.626C251.863 45.878 253.189 45.504 254.662 45.504C255.954 45.504 257.087 45.7987 258.062 46.388C259.059 46.9773 259.773 47.7707 260.204 48.768V45.912H263.672V62.572C263.672 64.068 263.332 65.326 262.652 66.346C261.995 67.3887 261.043 68.1707 259.796 68.692C258.572 69.236 257.11 69.508 255.41 69.508ZM255.376 60.022C256.781 60.022 257.903 59.512 258.742 58.492C259.603 57.472 260.045 56.0667 260.068 54.276C260.091 53.0973 259.909 52.0887 259.524 51.25C259.139 50.3887 258.583 49.7313 257.858 49.278C257.155 48.802 256.328 48.564 255.376 48.564C253.903 48.564 252.758 49.0853 251.942 50.128C251.149 51.148 250.752 52.5307 250.752 54.276C250.752 56.044 251.16 57.4493 251.976 58.492C252.815 59.512 253.948 60.022 255.376 60.022Z" fill="#F1E9DC"/>
</g>
</g>
</g>
</svg>
